<svg width="16" height="16" viewBox="0 0 16 16" fill="none" xmlns="http://www.w3.org/2000/svg">
<path d="M1.99967 2.66732H13.9997C14.1765 2.66732 14.3461 2.59708 14.4711 2.47206C14.5961 2.34703 14.6663 2.17746 14.6663 2.00065C14.6663 1.82384 14.5961 1.65427 14.4711 1.52925C14.3461 1.40422 14.1765 1.33398 13.9997 1.33398H1.99967C1.82286 1.33398 1.65329 1.40422 1.52827 1.52925C1.40325 1.65427 1.33301 1.82384 1.33301 2.00065C1.33301 2.17746 1.40325 2.34703 1.52827 2.47206C1.65329 2.59708 1.82286 2.66732 1.99967 2.66732Z" fill="#DBDCDC"/>
<path d="M1.99967 6.66732H9.99967C10.1765 6.66732 10.3461 6.59708 10.4711 6.47206C10.5961 6.34703 10.6663 6.17746 10.6663 6.00065C10.6663 5.82384 10.5961 5.65427 10.4711 5.52925C10.3461 5.40422 10.1765 5.33398 9.99967 5.33398H1.99967C1.82286 5.33398 1.65329 5.40422 1.52827 5.52925C1.40325 5.65427 1.33301 5.82384 1.33301 6.00065C1.33301 6.17746 1.40325 6.34703 1.52827 6.47206C1.65329 6.59708 1.82286 6.66732 1.99967 6.66732Z" fill="#DBDCDC"/>
<path d="M1.99967 10.6673H13.9997C14.1765 10.6673 14.3461 10.5971 14.4711 10.4721C14.5961 10.347 14.6663 10.1775 14.6663 10.0007C14.6663 9.82384 14.5961 9.65427 14.4711 9.52925C14.3461 9.40422 14.1765 9.33398 13.9997 9.33398H1.99967C1.82286 9.33398 1.65329 9.40422 1.52827 9.52925C1.40325 9.65427 1.33301 9.82384 1.33301 10.0007C1.33301 10.1775 1.40325 10.347 1.52827 10.4721C1.65329 10.5971 1.82286 10.6673 1.99967 10.6673Z" fill="#DBDCDC"/>
<path d="M1.99967 14.6673H9.99967C10.1765 14.6673 10.3461 14.5971 10.4711 14.4721C10.5961 14.347 10.6663 14.1775 10.6663 14.0007C10.6663 13.8238 10.5961 13.6543 10.4711 13.5292C10.3461 13.4042 10.1765 13.334 9.99967 13.334H1.99967C1.82286 13.334 1.65329 13.4042 1.52827 13.5292C1.40325 13.6543 1.33301 13.8238 1.33301 14.0007C1.33301 14.1775 1.40325 14.347 1.52827 14.4721C1.65329 14.5971 1.82286 14.6673 1.99967 14.6673Z" fill="#DBDCDC"/>
</svg>
