<svg width="16" height="16" viewBox="0 0 16 16" fill="none" xmlns="http://www.w3.org/2000/svg">
<path d="M9.99967 15.1673H5.99967C2.37967 15.1673 0.833008 13.6207 0.833008 10.0007V6.00065C0.833008 2.38065 2.37967 0.833984 5.99967 0.833984H9.99967C13.6197 0.833984 15.1663 2.38065 15.1663 6.00065V10.0007C15.1663 13.6207 13.6197 15.1673 9.99967 15.1673ZM5.99967 1.83398C2.92634 1.83398 1.83301 2.92732 1.83301 6.00065V10.0007C1.83301 13.074 2.92634 14.1673 5.99967 14.1673H9.99967C13.073 14.1673 14.1663 13.074 14.1663 10.0007V6.00065C14.1663 2.92732 13.073 1.83398 9.99967 1.83398H5.99967Z" fill="#DBDCDC"/>
<path d="M5.99935 7.16667C4.98602 7.16667 4.16602 6.34667 4.16602 5.33333C4.16602 4.32 4.98602 3.5 5.99935 3.5C7.01268 3.5 7.83268 4.32 7.83268 5.33333C7.83268 6.34667 7.01268 7.16667 5.99935 7.16667ZM5.99935 4.5C5.53935 4.5 5.16602 4.87333 5.16602 5.33333C5.16602 5.79333 5.53935 6.16667 5.99935 6.16667C6.45935 6.16667 6.83268 5.79333 6.83268 5.33333C6.83268 4.87333 6.45935 4.5 5.99935 4.5Z" fill="#DBDCDC"/>
<path d="M1.7792 13.135C1.6192 13.135 1.4592 13.055 1.36586 12.915C1.21253 12.6883 1.27253 12.375 1.50586 12.2217L4.79253 10.015C5.51253 9.52833 6.50586 9.58833 7.15922 10.1417L7.37922 10.335C7.71255 10.6217 8.27922 10.6217 8.60588 10.335L11.3792 7.955C12.0859 7.34833 13.1992 7.34833 13.9126 7.955L14.9992 8.88833C15.2059 9.06833 15.2326 9.38167 15.0526 9.595C14.8726 9.80167 14.5592 9.82833 14.3459 9.64833L13.2592 8.715C12.9259 8.42833 12.3592 8.42833 12.0259 8.715L9.25255 11.095C8.54588 11.7017 7.43255 11.7017 6.71922 11.095L6.4992 10.9017C6.19253 10.6417 5.68586 10.615 5.34586 10.8483L2.0592 13.055C1.97253 13.1083 1.87253 13.135 1.7792 13.135Z" fill="#DBDCDC"/>
</svg>
