<svg width="110" height="31" viewBox="0 0 110 31" fill="none" xmlns="http://www.w3.org/2000/svg">
<path d="M9.31361 21.9436C9.31361 21.008 8.54028 20.2496 7.58634 20.2496H6.57005C5.6161 20.2496 4.84277 19.4911 4.84277 18.5556L4.84277 12.4436C4.84277 11.508 5.6161 10.7496 6.57005 10.7496L12.43 10.7496C13.3839 10.7496 14.1572 11.508 14.1572 12.4436V13.806C14.1572 14.7416 14.9306 15.5 15.8845 15.5H17.2727C18.2267 15.5 19 14.7416 19 13.806V12.4436C19 11.508 18.2267 10.7496 17.2727 10.7496H16.2564C15.3025 10.7496 14.5292 9.99114 14.5292 9.05555V7.69404C14.5292 6.75845 13.7558 6 12.8019 6L1.72727 6C0.773326 6 -8.33966e-08 6.75845 0 7.69404L9.68174e-07 18.5556C1.05157e-06 19.4911 0.773327 20.2496 1.72727 20.2496H2.74356C3.69751 20.2496 4.47084 21.008 4.47084 21.9436V23.306C4.47084 24.2416 5.24416 25 6.19811 25H7.58634C8.54029 25 9.31361 24.2416 9.31361 23.306V21.9436Z" fill="#111111"/>
<path d="M27.9732 24V7.2H30.3732V22.104H38.0532V24H27.9732ZM40.4319 24V11.904H42.8319V24H40.4319ZM41.6559 9.624C41.1919 9.624 40.8079 9.48 40.5039 9.192C40.2159 8.904 40.0719 8.536 40.0719 8.088C40.0719 7.656 40.2159 7.304 40.5039 7.032C40.8079 6.744 41.1919 6.6 41.6559 6.6C42.1039 6.6 42.4799 6.744 42.7839 7.032C43.0879 7.304 43.2399 7.656 43.2399 8.088C43.2399 8.536 43.0879 8.904 42.7839 9.192C42.4799 9.48 42.1039 9.624 41.6559 9.624ZM45.7839 24V11.904H47.9439L48.0879 13.968C48.4719 13.248 49.0159 12.68 49.7199 12.264C50.4239 11.832 51.2319 11.616 52.1439 11.616C53.1039 11.616 53.9279 11.808 54.6159 12.192C55.3039 12.576 55.8399 13.16 56.2239 13.944C56.6079 14.712 56.7999 15.68 56.7999 16.848V24H54.3999V17.088C54.3999 15.968 54.1519 15.12 53.6559 14.544C53.1599 13.968 52.4399 13.68 51.4959 13.68C50.8719 13.68 50.3119 13.832 49.8159 14.136C49.3199 14.424 48.9199 14.856 48.6159 15.432C48.3279 16.008 48.1839 16.712 48.1839 17.544V24H45.7839ZM64.3098 29.568C63.2058 29.568 62.2298 29.424 61.3818 29.136C60.5338 28.864 59.8778 28.44 59.4138 27.864C58.9498 27.288 58.7178 26.584 58.7178 25.752C58.7178 25.32 58.8138 24.88 59.0058 24.432C59.1978 24 59.5098 23.584 59.9418 23.184C60.3738 22.784 60.9578 22.424 61.6938 22.104L63.0378 23.184C62.2218 23.488 61.6698 23.848 61.3818 24.264C61.1098 24.696 60.9738 25.112 60.9738 25.512C60.9738 25.992 61.1178 26.392 61.4058 26.712C61.6938 27.032 62.0858 27.272 62.5818 27.432C63.0938 27.592 63.6698 27.672 64.3098 27.672C64.9338 27.672 65.4778 27.584 65.9418 27.408C66.4058 27.232 66.7658 26.984 67.0218 26.664C67.2778 26.344 67.4058 25.968 67.4058 25.536C67.4058 25.024 67.2138 24.592 66.8298 24.24C66.4458 23.904 65.7098 23.704 64.6218 23.64C63.7098 23.576 62.9338 23.488 62.2938 23.376C61.6698 23.264 61.1338 23.128 60.6858 22.968C60.2538 22.808 59.8858 22.632 59.5818 22.44C59.2938 22.248 59.0458 22.048 58.8378 21.84V21.288L61.2378 18.816L63.1818 19.488L60.5658 21.912L61.0698 20.832C61.2458 20.944 61.4138 21.056 61.5738 21.168C61.7338 21.264 61.9498 21.352 62.2218 21.432C62.4938 21.512 62.8618 21.584 63.3258 21.648C63.7898 21.712 64.3978 21.776 65.1498 21.84C66.2378 21.92 67.1098 22.112 67.7658 22.416C68.4378 22.72 68.9258 23.128 69.2298 23.64C69.5338 24.152 69.6858 24.76 69.6858 25.464C69.6858 26.152 69.4938 26.808 69.1098 27.432C68.7418 28.056 68.1578 28.568 67.3578 28.968C66.5738 29.368 65.5578 29.568 64.3098 29.568ZM64.3098 20.28C63.2858 20.28 62.4138 20.088 61.6938 19.704C60.9898 19.32 60.4458 18.8 60.0618 18.144C59.6938 17.488 59.5098 16.76 59.5098 15.96C59.5098 15.144 59.6938 14.416 60.0618 13.776C60.4458 13.12 60.9978 12.6 61.7178 12.216C62.4378 11.816 63.3018 11.616 64.3098 11.616C65.3178 11.616 66.1738 11.816 66.8778 12.216C67.5978 12.6 68.1418 13.12 68.5098 13.776C68.8938 14.416 69.0858 15.144 69.0858 15.96C69.0858 16.76 68.8938 17.488 68.5098 18.144C68.1418 18.8 67.5978 19.32 66.8778 19.704C66.1738 20.088 65.3178 20.28 64.3098 20.28ZM64.3098 18.36C65.0938 18.36 65.7178 18.16 66.1818 17.76C66.6458 17.344 66.8778 16.744 66.8778 15.96C66.8778 15.176 66.6458 14.584 66.1818 14.184C65.7178 13.768 65.0938 13.56 64.3098 13.56C63.5258 13.56 62.8938 13.768 62.4138 14.184C61.9338 14.584 61.6938 15.176 61.6938 15.96C61.6938 16.744 61.9338 17.344 62.4138 17.76C62.8938 18.16 63.5258 18.36 64.3098 18.36ZM66.2778 13.8L65.7018 11.904H70.6698V13.56L66.2778 13.8ZM77.6006 24.288C76.4486 24.288 75.4246 24.024 74.5286 23.496C73.6326 22.968 72.9286 22.232 72.4166 21.288C71.9206 20.344 71.6726 19.248 71.6726 18C71.6726 16.72 71.9206 15.608 72.4166 14.664C72.9286 13.704 73.6326 12.96 74.5286 12.432C75.4246 11.888 76.4646 11.616 77.6486 11.616C78.8326 11.616 79.8486 11.88 80.6966 12.408C81.5446 12.936 82.2006 13.64 82.6646 14.52C83.1286 15.384 83.3606 16.344 83.3606 17.4C83.3606 17.56 83.3526 17.736 83.3366 17.928C83.3366 18.104 83.3286 18.304 83.3126 18.528H73.4246V16.824H80.9606C80.9126 15.816 80.5766 15.032 79.9526 14.472C79.3286 13.896 78.5526 13.608 77.6246 13.608C76.9686 13.608 76.3686 13.76 75.8246 14.064C75.2806 14.352 74.8406 14.784 74.5046 15.36C74.1846 15.92 74.0246 16.632 74.0246 17.496V18.168C74.0246 19.064 74.1846 19.824 74.5046 20.448C74.8406 21.056 75.2806 21.52 75.8246 21.84C76.3686 22.144 76.9606 22.296 77.6006 22.296C78.3686 22.296 79.0006 22.128 79.4966 21.792C79.9926 21.456 80.3606 21 80.6006 20.424H83.0006C82.7926 21.16 82.4406 21.824 81.9446 22.416C81.4486 22.992 80.8326 23.448 80.0966 23.784C79.3766 24.12 78.5446 24.288 77.6006 24.288ZM85.547 24V11.904H87.707L87.851 13.968C88.235 13.248 88.779 12.68 89.483 12.264C90.187 11.832 90.995 11.616 91.907 11.616C92.867 11.616 93.691 11.808 94.379 12.192C95.067 12.576 95.603 13.16 95.987 13.944C96.371 14.712 96.563 15.68 96.563 16.848V24H94.163V17.088C94.163 15.968 93.915 15.12 93.419 14.544C92.923 13.968 92.203 13.68 91.259 13.68C90.635 13.68 90.075 13.832 89.579 14.136C89.083 14.424 88.683 14.856 88.379 15.432C88.091 16.008 87.947 16.712 87.947 17.544V24H85.547ZM103.833 24.288C102.809 24.288 101.913 24.12 101.145 23.784C100.377 23.448 99.7689 22.976 99.3209 22.368C98.8729 21.76 98.6009 21.048 98.5049 20.232H100.953C101.033 20.616 101.185 20.968 101.409 21.288C101.649 21.608 101.969 21.864 102.369 22.056C102.785 22.248 103.273 22.344 103.833 22.344C104.361 22.344 104.793 22.272 105.129 22.128C105.481 21.968 105.737 21.76 105.897 21.504C106.057 21.232 106.137 20.944 106.137 20.64C106.137 20.192 106.025 19.856 105.801 19.632C105.593 19.392 105.273 19.208 104.841 19.08C104.425 18.936 103.921 18.808 103.329 18.696C102.769 18.6 102.225 18.472 101.697 18.312C101.185 18.136 100.721 17.92 100.305 17.664C99.9049 17.408 99.5849 17.088 99.3449 16.704C99.1049 16.304 98.9849 15.816 98.9849 15.24C98.9849 14.552 99.1689 13.936 99.5369 13.392C99.9049 12.832 100.425 12.4 101.097 12.096C101.785 11.776 102.593 11.616 103.521 11.616C104.865 11.616 105.945 11.936 106.761 12.576C107.577 13.216 108.057 14.12 108.201 15.288H105.873C105.809 14.744 105.569 14.328 105.153 14.04C104.737 13.736 104.185 13.584 103.497 13.584C102.809 13.584 102.281 13.72 101.913 13.992C101.545 14.264 101.361 14.624 101.361 15.072C101.361 15.36 101.465 15.616 101.673 15.84C101.881 16.064 102.185 16.256 102.585 16.416C103.001 16.56 103.505 16.696 104.097 16.824C104.945 16.984 105.705 17.184 106.377 17.424C107.049 17.664 107.585 18.016 107.985 18.48C108.385 18.944 108.585 19.608 108.585 20.472C108.601 21.224 108.409 21.888 108.009 22.464C107.625 23.04 107.073 23.488 106.353 23.808C105.649 24.128 104.809 24.288 103.833 24.288Z" fill="#111111"/>
</svg>
