<svg width="19" height="19" viewBox="0 0 19 19" fill="none" xmlns="http://www.w3.org/2000/svg">
<path d="M9.5 0C4.2496 0 0 4.24888 0 9.5C0 11.1663 0.434585 12.7937 1.25983 14.2291L0.0358047 18.0302C-0.0495758 18.2952 0.0205841 18.5857 0.217438 18.7826C0.412407 18.9775 0.702179 19.0503 0.969772 18.9642L4.77087 17.7402C6.20625 18.5654 7.8337 19 9.5 19C14.7504 19 19 14.7511 19 9.5C19 4.2496 14.7511 0 9.5 0ZM9.5 17.5156C7.99489 17.5156 6.52777 17.0957 5.25721 16.3012C5.07442 16.1869 4.84741 16.1561 4.63621 16.224L1.89229 17.1077L2.77595 14.3638C2.84292 14.1556 2.81466 13.9283 2.69869 13.7428C1.90432 12.4722 1.48437 11.0051 1.48437 9.5C1.48437 5.08021 5.08021 1.48437 9.5 1.48437C13.9198 1.48437 17.5156 5.08021 17.5156 9.5C17.5156 13.9198 13.9198 17.5156 9.5 17.5156ZM10.4277 9.5C10.4277 10.0123 10.0124 10.4277 9.5 10.4277C8.98757 10.4277 8.57226 10.0123 8.57226 9.5C8.57226 8.98757 8.98757 8.57226 9.5 8.57226C10.0124 8.57226 10.4277 8.98757 10.4277 9.5ZM14.1387 9.5C14.1387 10.0123 13.7234 10.4277 13.2109 10.4277C12.6985 10.4277 12.2832 10.0123 12.2832 9.5C12.2832 8.98757 12.6985 8.57226 13.2109 8.57226C13.7234 8.57226 14.1387 8.98757 14.1387 9.5ZM6.71679 9.5C6.71679 10.0123 6.30149 10.4277 5.78906 10.4277C5.27678 10.4277 4.86133 10.0123 4.86133 9.5C4.86133 8.98757 5.27678 8.57226 5.78906 8.57226C6.30149 8.57226 6.71679 8.98757 6.71679 9.5Z" fill="black" fill-opacity="0.24"/>
</svg>
